<svg width="40" height="36" viewBox="0 0 40 36" fill="none" xmlns="http://www.w3.org/2000/svg">
<path d="M25.3125 3C25.5469 3 25.7812 3.23438 25.8594 3.46875L27.5781 8H36.25C36.875 8 37.5 8.625 37.5 9.25V31.75C37.5 32.4531 36.875 33 36.25 33H3.75C3.04688 33 2.5 32.4531 2.5 31.75V9.25C2.5 8.625 3.04688 8 3.75 8H12.3438L13.9062 3.85938C14.0625 3.39062 14.5312 3 15.0781 3H25.3125ZM25.3125 0.5H15.0781C13.5156 0.5 12.1094 1.51562 11.5625 3L10.625 5.5H3.75C1.64062 5.5 0 7.21875 0 9.25V31.75C0 33.8594 1.64062 35.5 3.75 35.5H36.25C38.2812 35.5 40 33.8594 40 31.75V9.25C40 7.21875 38.2812 5.5 36.25 5.5H29.375L28.2031 2.53125C27.7344 1.35938 26.6406 0.5 25.3125 0.5ZM20 29.875C25.1562 29.875 29.375 25.7344 29.375 20.5C29.375 15.3438 25.1562 11.125 20 11.125C14.7656 11.125 10.625 15.3438 10.625 20.5C10.625 25.7344 14.7656 29.875 20 29.875ZM20 13.625C23.75 13.625 26.875 16.75 26.875 20.5C26.875 24.3281 23.75 27.375 20 27.375C16.1719 27.375 13.125 24.3281 13.125 20.5C13.125 16.75 16.1719 13.625 20 13.625Z" fill="#999999"/>
</svg>
