<svg width="40" height="40" viewBox="0 0 40 40" fill="none" xmlns="http://www.w3.org/2000/svg">
<path d="M39.6429 20C39.6429 30.8485 30.8484 39.6429 20 39.6429C9.15155 39.6429 0.357143 30.8485 0.357143 20C0.357143 9.15155 9.15155 0.357143 20 0.357143C30.8484 0.357143 39.6429 9.15155 39.6429 20Z" fill="white" stroke="#EFEFEF" stroke-width="0.714286"/>
<path d="M24.5295 16.9981C24.5295 20.1467 21.204 22.6585 17.171 22.6585C15.7205 22.6585 14.3408 22.3401 13.2087 21.774C12.4304 22.2339 11.3691 22.6585 10.0955 22.6585C9.95401 22.6585 9.88325 22.6231 9.8125 22.517C9.77712 22.4108 9.8125 22.2693 9.88325 22.1986C9.88325 22.1986 10.6616 21.3495 11.1568 20.2528C10.3078 19.333 9.8125 18.2363 9.8125 16.9981C9.8125 13.8849 13.1026 11.3377 17.171 11.3377C21.204 11.3377 24.5295 13.8849 24.5295 16.9981ZM28.8455 24.7811C29.3054 25.8778 30.0837 26.7269 30.0837 26.7269C30.1899 26.7976 30.1899 26.9391 30.1545 27.0453C30.1191 27.1514 30.013 27.1868 29.9068 27.1868C28.5979 27.1868 27.5366 26.7622 26.7583 26.3023C25.6262 26.8684 24.2818 27.1868 22.8314 27.1868C19.7535 27.1868 17.1356 25.7717 16.0389 23.7552C16.3927 23.7905 16.7818 23.7905 17.171 23.7905C21.8408 23.7905 25.6616 20.7481 25.6616 16.9981C25.6616 16.7858 25.6262 16.5382 25.5908 16.2905C28.2795 17.1396 30.1899 19.1915 30.1899 21.5264C30.1899 22.7646 29.6592 23.8613 28.8455 24.7811Z" fill="#69ACFB"/>
</svg>
