<svg width="41" height="40" viewBox="0 0 41 40" fill="none" xmlns="http://www.w3.org/2000/svg">
<path d="M40.1429 20C40.1429 30.8485 31.3484 39.6429 20.5 39.6429C9.65155 39.6429 0.857143 30.8485 0.857143 20C0.857143 9.15155 9.65155 0.357143 20.5 0.357143C31.3484 0.357143 40.1429 9.15155 40.1429 20Z" fill="white" stroke="#EFEFEF" stroke-width="0.714286"/>
<path d="M32.388 22.6585C32.671 22.6585 32.954 22.9415 32.954 23.2245V24.3566C32.954 24.675 32.671 24.9226 32.388 24.9226H30.6899C30.6899 26.7976 29.1686 28.3188 27.2936 28.3188C25.4186 28.3188 23.8974 26.7976 23.8974 24.9226H19.3691C19.3691 26.7976 17.8479 28.3188 15.9729 28.3188C14.0979 28.3188 12.5767 26.7976 12.5767 24.9226H12.0106C11.0554 24.9226 10.3125 24.1797 10.3125 23.2245V11.9037C10.3125 10.9839 11.0554 10.2056 12.0106 10.2056H23.3314C24.2512 10.2056 25.0295 10.9839 25.0295 11.9037V13.6019H26.5861C27.0106 13.6019 27.4705 13.8141 27.7889 14.1325L31.2913 17.6349C31.6097 17.9533 31.8219 18.4132 31.8219 18.8377V22.6585H32.388ZM15.9729 26.6207C16.8927 26.6207 17.671 25.8778 17.671 24.9226C17.671 24.0028 16.8927 23.2245 15.9729 23.2245C15.0177 23.2245 14.2748 24.0028 14.2748 24.9226C14.2748 25.8778 15.0177 26.6207 15.9729 26.6207ZM27.2936 26.6207C28.2135 26.6207 28.9918 25.8778 28.9918 24.9226C28.9918 24.0028 28.2135 23.2245 27.2936 23.2245C26.3384 23.2245 25.5955 24.0028 25.5955 24.9226C25.5955 25.8778 26.3384 26.6207 27.2936 26.6207ZM30.1238 19.2622V18.8377L26.5861 15.3H25.0295V19.2622H30.1238Z" fill="#69ACFB"/>
</svg>
