<svg width="16" height="16" viewBox="0 0 16 16" fill="none" xmlns="http://www.w3.org/2000/svg">
<path d="M9 9.5C9 9.36739 9.05268 9.24021 9.14645 9.14645C9.24021 9.05268 9.36739 9 9.5 9H11.5C11.6326 9 11.7598 9.05268 11.8536 9.14645C11.9473 9.24021 12 9.36739 12 9.5V11.5C12 11.6326 11.9473 11.7598 11.8536 11.8536C11.7598 11.9473 11.6326 12 11.5 12H9.5C9.36739 12 9.24021 11.9473 9.14645 11.8536C9.05268 11.7598 9 11.6326 9 11.5V9.5ZM10 11H11V10H10V11ZM4.188 1.11L1.688 3.11C1.522 3.242 1.5 3.47 1.5 3.67V5.5C1.5 6.063 1.686 6.582 2 7V14.5C2 14.6326 2.05268 14.7598 2.14645 14.8536C2.24021 14.9473 2.36739 15 2.5 15H13.5C13.6326 15 13.7598 14.9473 13.8536 14.8536C13.9473 14.7598 14 14.6326 14 14.5V7C14.314 6.582 14.5 6.063 14.5 5.5V3.666C14.5 3.466 14.478 3.242 14.312 3.11L11.812 1.11C11.7235 1.03899 11.6135 1.0002 11.5 1H4.5C4.38653 1.0002 4.27651 1.03899 4.188 1.11ZM5.5 4V5.5C5.5 5.89782 5.34196 6.27936 5.06066 6.56066C4.77936 6.84196 4.39782 7 4 7C3.60218 7 3.22064 6.84196 2.93934 6.56066C2.65804 6.27936 2.5 5.89782 2.5 5.5V4H5.5ZM9.5 4V5.5C9.5 5.89782 9.34196 6.27936 9.06066 6.56066C8.77936 6.84196 8.39782 7 8 7C7.60218 7 7.22064 6.84196 6.93934 6.56066C6.65804 6.27936 6.5 5.89782 6.5 5.5V4H9.5ZM13.5 4V5.5C13.5 5.89782 13.342 6.27936 13.0607 6.56066C12.7794 6.84196 12.3978 7 12 7C11.6022 7 11.2206 6.84196 10.9393 6.56066C10.658 6.27936 10.5 5.89782 10.5 5.5V4H13.5ZM6.029 2L5.654 3H3.425L4.675 2H6.029ZM6.722 3L7.097 2H8.89L9.223 3H6.722ZM9.944 2H11.324L12.574 3H10.277L9.944 2ZM13 7.792V14H8V9.5C8 9.36739 7.94732 9.24021 7.85355 9.14645C7.75979 9.05268 7.63261 9 7.5 9H4.5C4.36739 9 4.24021 9.05268 4.14645 9.14645C4.05268 9.24021 4 9.36739 4 9.5V14H3V7.792C3.51605 8.0179 4.09335 8.06258 4.63802 7.91879C5.18268 7.775 5.6627 7.45118 6 7C6.456 7.607 7.182 8 8 8C8.818 8 9.544 7.607 10 7C10.3373 7.45118 10.8173 7.775 11.362 7.91879C11.9067 8.06258 12.4839 8.0179 13 7.792ZM7 14H5V10H7V14Z" fill="#343434"/>
</svg>
