<svg width="13" height="14" viewBox="0 0 13 14" fill="none" xmlns="http://www.w3.org/2000/svg">
<g clip-path="url(#clip0_10_13662)">
<path d="M7.17462 0.5C7.21407 0.821091 7.25715 1.14218 7.29205 1.46327C7.38307 2.29393 7.46803 3.12492 7.55542 3.95558C7.58789 4.26286 7.62612 4.56918 7.65039 4.87679C7.69591 5.45475 7.25169 5.97106 6.70492 5.97428C6.50435 5.97428 6.29802 5.98519 6.10443 5.94217C5.61501 5.83075 5.31249 5.32439 5.37287 4.79844C5.46754 3.97388 5.54734 3.14739 5.63382 2.32187C5.69451 1.73427 5.75651 1.14678 5.81982 0.559402C5.8248 0.538896 5.83246 0.519226 5.84258 0.500963L7.17462 0.5Z" fill="#616161"/>
<path d="M5.17658 0.500077C5.12136 1.05075 5.06765 1.60142 5.0103 2.15209C4.93566 2.87197 4.85859 3.59122 4.78182 4.3111C4.74936 4.61807 4.72357 4.92567 4.68564 5.23199C4.66153 5.43775 4.56702 5.62703 4.41998 5.76405C4.27294 5.90108 4.08355 5.97635 3.88763 5.97564C3.74138 5.97724 3.59543 5.97821 3.44918 5.97564C2.94609 5.966 2.55832 5.45611 2.68849 4.94205C3.01012 3.67406 3.34722 2.41057 3.67766 1.14515C3.73389 0.931087 3.78952 0.715957 3.84454 0.499756L5.17658 0.500077Z" fill="#616161"/>
<path d="M9.17207 0.5C9.54893 1.93956 9.92558 3.37943 10.302 4.81963C10.4723 5.47048 10.1109 5.97909 9.4761 5.97556C9.29587 5.97556 9.11199 5.98455 8.9357 5.9457C8.77629 5.91021 8.63171 5.82188 8.52297 5.69352C8.41422 5.56516 8.34697 5.40347 8.33097 5.23191C8.23448 4.34313 8.14558 3.45371 8.05212 2.56461C7.98719 1.94555 7.91922 1.32649 7.85338 0.707424C7.8461 0.638711 7.84458 0.569355 7.84033 0.500321L9.17207 0.5Z" fill="#616161"/>
<path d="M10.8373 0.5C11.1392 0.594722 11.2882 0.834255 11.408 1.12516C11.9005 2.32058 12.3914 3.51697 12.91 4.69955C13.1997 5.36003 12.7488 6.01441 12.1262 5.97717C11.9957 5.96946 11.8604 5.98969 11.7345 5.96143C11.4068 5.8879 11.1929 5.67245 11.1018 5.32728C10.7426 3.95922 10.3831 2.59126 10.0235 1.22342C9.96005 0.98292 9.89997 0.741781 9.83838 0.5H10.8373Z" fill="#616161"/>
<path d="M3.17839 0.500154C2.88002 1.64259 2.58155 2.78504 2.28298 3.92748C2.16768 4.36801 2.05116 4.80791 1.93677 5.24876C1.80569 5.75384 1.53382 5.97796 1.04409 5.97571C0.91392 5.97571 0.779806 5.97925 0.653884 5.95067C0.324363 5.87553 0.116819 5.65591 0.0303426 5.30849C0.0222199 5.28466 0.0120637 5.26166 0 5.23977V5.01501C0.0421763 4.89685 0.0794977 4.77644 0.127742 4.66181C0.621721 3.48212 1.12207 2.30565 1.60937 1.12307C1.72923 0.832162 1.87973 0.595197 2.17951 0.499512L3.17839 0.500154Z" fill="#616161"/>
<path d="M7.94425 6.01073C8.45704 6.87767 10.1766 6.89566 10.7188 6.03802C11.0434 6.46315 11.4637 6.67571 11.9932 6.65708C11.9965 6.72772 12.0011 6.78552 12.0011 6.84171C12.0011 8.9014 12.0011 10.9613 12.0011 13.0214C12.0011 13.391 11.8982 13.4999 11.5514 13.4999H5.86001V8.52294C5.86001 8.12126 5.76898 8.02557 5.38545 8.02557H3.05514C2.74989 8.02557 2.63307 8.14791 2.63307 8.46836C2.63307 10.0738 2.63307 11.6801 2.63307 13.2873V13.4893C2.57906 13.4931 2.53567 13.4989 2.49198 13.4989C2.13394 13.4989 1.77559 13.4989 1.41755 13.4989C1.14052 13.4989 1.01854 13.374 1.01733 13.0815C1.0146 12.4569 1.01733 11.8327 1.01733 11.2082V6.66062C1.54195 6.6725 1.96827 6.47342 2.29718 6.03577L2.39094 6.14366C2.67525 6.46893 3.02328 6.64906 3.44504 6.65259C3.66654 6.65452 3.89077 6.66511 4.10924 6.63461C4.50734 6.57874 4.82169 6.35558 5.06959 6.00977C5.44796 6.4837 5.92859 6.66158 6.50328 6.6619C7.07797 6.66222 7.56163 6.49301 7.94425 6.01073ZM7.47667 9.74148C7.47667 10.1682 7.47667 10.5949 7.47667 11.0217C7.47667 11.3151 7.59288 11.4391 7.87325 11.4391C8.57942 11.4412 9.28529 11.4412 9.99086 11.4391C10.2685 11.4391 10.3829 11.3107 10.3832 11.0156C10.3832 10.1621 10.3832 9.30854 10.3832 8.45487C10.3832 8.15465 10.2618 8.02622 9.97872 8.02589C9.27781 8.02589 8.57689 8.02589 7.87598 8.02589C7.60138 8.02589 7.47758 8.15594 7.47667 8.44331C7.47485 8.87711 7.47667 9.30929 7.47667 9.74148Z" fill="#616161"/>
</g>
<defs>
<clipPath id="clip0_10_13662">
<rect width="13" height="13" fill="white" transform="translate(0 0.5)"/>
</clipPath>
</defs>
</svg>
