<svg width="24" height="18" viewBox="0 0 24 18" fill="none" xmlns="http://www.w3.org/2000/svg">
<g id="Frame" clip-path="url(#clip0_61_386)">
<path id="Vector" d="M3.14035 12.9595H6.09338V14.3995H3.14035V12.9595Z" fill="#EB6E34"/>
<path id="Vector_2" d="M21.5977 0H5.35536C4.13411 0 3.14053 0.969448 3.14053 2.16067V3.59995H2.40234C1.18083 3.59995 0.1875 4.5694 0.1875 5.76037V15.8398C0.1875 17.0301 1.18083 17.9997 2.40234 17.9997H17.9064C19.1277 17.9997 20.1213 17.0303 20.1213 15.8398H21.5979C22.8192 15.8398 23.8128 14.8701 23.8128 13.6792V2.16067C23.8125 0.969448 22.8189 0 21.5977 0ZM18.6446 15.8401C18.6446 16.2366 18.313 16.5595 17.9064 16.5595H2.40234C1.99499 16.5595 1.66414 16.2368 1.66414 15.8401V9.36032H18.6449V15.8401H18.6446ZM18.6446 7.91954H1.66414V5.76037C1.66414 5.36238 1.99499 5.04048 2.40234 5.04048H17.9064C18.313 5.04048 18.6446 5.36238 18.6446 5.76037V7.91954ZM22.3361 13.6794C22.3361 14.0774 22.0045 14.3993 21.5979 14.3993H20.1213V5.76037C20.1213 4.5694 19.1277 3.5997 17.9064 3.5997H4.61717V2.16042C4.61717 1.76243 4.94802 1.43978 5.35536 1.43978H21.5977C22.0042 1.43978 22.3359 1.76243 22.3359 2.16042L22.3361 13.6794Z" fill="#EB6E34"/>
</g>
<defs>
<clipPath id="clip0_61_386">
<rect width="23.625" height="18" fill="white" transform="translate(0.1875)"/>
</clipPath>
</defs>
</svg>
