<svg width="32" height="22" viewBox="0 0 32 22" fill="none" xmlns="http://www.w3.org/2000/svg">
<g id="Frame">
<path id="Vector" d="M14.062 20.9C13.756 20.9 13.5519 20.9 13.3481 20.8011L5.18796 19.3161C4.88196 19.3161 4.78006 19.118 4.78006 18.821L5.79996 13.3761V13.2772C6.71796 11.5941 8.65586 11.0001 10.1859 11.0001L13.6538 7.63422C14.2658 7.13913 15.1838 7.04023 15.8977 7.63422L16.1018 7.83232C16.8157 8.52522 17.0198 9.51541 16.5097 10.2083L14.4696 12.6832C14.3677 12.7821 14.2655 12.9802 14.0617 13.0791C13.8576 13.2772 13.5516 13.5742 13.5516 13.772V14.2671C13.5516 14.5641 13.6535 14.8611 13.9595 15.1581C14.5715 15.6532 15.5914 15.851 16.5094 15.7521H22.7313C22.9354 15.7521 23.1392 15.851 23.2414 16.148C23.3433 16.3461 23.2414 16.5439 23.0373 16.742L18.4473 19.712C17.734 20.4049 15.3879 20.9 14.062 20.9ZM5.90186 18.524L13.5519 19.9101C14.368 20.1082 17.2239 19.5142 17.734 19.0191L20.9981 16.9401H16.51C15.3879 17.1382 14.062 16.742 13.2459 16.148C12.7358 15.7521 12.4298 15.1581 12.4298 14.4649V13.9698C12.4298 13.3758 12.8377 12.8807 13.2459 12.5837C13.3478 12.4848 13.45 12.3856 13.5519 12.1878L15.592 9.71292C15.7961 9.41592 15.592 8.92083 15.286 8.52493L15.0819 8.32683C14.7759 8.12874 14.368 8.22793 14.2658 8.42574L10.696 11.8908C10.696 11.8908 10.4919 11.9897 10.39 11.9897C9.06406 11.9897 7.43186 12.4848 6.81986 13.6728L5.90186 18.524Z" fill="#EB6E34" stroke="#EB6E34" stroke-width="0.3"/>
<path id="Vector_2" d="M1.20993 20.9C0.903929 20.9 0.699829 20.603 0.699829 20.4049V11.4949C0.699829 11.396 0.801729 11.1979 0.801729 11.099C0.90363 11.0001 1.10773 11.0001 1.20963 11.0001C1.92353 11.0001 5.59553 11.099 6.61573 12.0892C6.81983 12.1881 6.81983 12.3862 6.81983 12.4851C6.51383 15.6532 5.79993 18.9202 5.79993 19.0191C5.79993 19.118 5.69803 19.2172 5.59583 19.3161C5.49363 19.415 2.94373 20.9 1.20993 20.9ZM1.71973 11.99V19.8109C2.73963 19.6128 4.16773 18.9199 4.88163 18.524C5.08573 17.8311 5.59553 15.1581 5.79963 12.584C4.98383 12.287 3.14783 12.0889 1.71973 11.99ZM20.5898 10.9998C19.2639 10.9998 18.1418 10.3069 18.0399 9.41594C18.0399 9.11894 18.244 8.92084 18.4478 8.92084C18.7538 8.92084 18.9579 9.11894 18.9579 9.31674C18.9579 9.61374 19.6718 10.0096 20.4879 10.0096C21.304 10.0096 22.0179 9.61374 22.0179 9.21755C22.0179 9.01945 21.7119 8.62355 20.4879 8.52465H20.386C19.6721 8.42575 17.938 8.12875 17.938 6.84156C17.938 5.85166 19.0601 5.05957 20.4879 5.05957C21.8138 5.05957 22.9359 5.75247 23.0378 6.64347C23.0378 6.94046 22.8337 7.13856 22.6299 7.13856C22.3239 7.13856 22.1198 6.94046 22.1198 6.74266C22.1198 6.44566 21.4059 6.04976 20.5898 6.04976C19.7737 6.04976 19.0598 6.44566 19.0598 6.84185C19.0598 7.03995 19.3658 7.43585 20.5898 7.53475H20.6917C21.4056 7.63365 23.1397 7.93065 23.1397 9.21784C23.1397 10.208 22.0179 10.9998 20.5898 10.9998Z" fill="#EB6E34" stroke="#EB6E34" stroke-width="0.3"/>
<path id="Vector_3" d="M20.5898 11.99C20.2838 11.99 20.0797 11.7919 20.0797 11.4949V4.56499C20.0797 4.268 20.2838 4.0699 20.5898 4.0699C20.8958 4.0699 21.0999 4.268 21.0999 4.56499V11.4949C21.0999 11.693 20.8958 11.99 20.5898 11.99ZM27.7297 4.0699H25.6896C25.3836 4.0699 25.1795 3.7729 25.1795 3.57481C25.1795 3.37671 25.3836 3.07971 25.6896 3.07971H27.7297C28.0357 3.07971 28.2398 3.27781 28.2398 3.57481C28.2398 3.8718 28.0357 4.0699 27.7297 4.0699Z" fill="#EB6E34" stroke="#EB6E34" stroke-width="0.3"/>
<path id="Vector_4" d="M30.7898 14.96H16.51C16.204 14.96 15.9999 14.7619 15.9999 14.4649C15.9999 14.1679 16.204 13.9698 16.51 13.9698H30.28V2.08987H10.8998V7.53475C10.8998 7.83175 10.6957 8.02985 10.3897 8.02985C10.0837 8.02985 9.87958 7.73285 9.87958 7.53475V1.59507C9.87988 1.29807 10.084 1.09998 10.39 1.09998H30.7901C31.0961 1.09998 31.3002 1.29807 31.3002 1.59507V14.4649C31.2999 14.663 31.0958 14.96 30.7898 14.96Z" fill="#EB6E34" stroke="#EB6E34" stroke-width="0.3"/>
</g>
</svg>
