<?xml version="1.0" encoding="utf-8"?>
<!-- Generator: Adobe Illustrator 24.0.0, SVG Export Plug-In . SVG Version: 6.00 Build 0)  -->
<svg version="1.1" id="Layer_1" xmlns="http://www.w3.org/2000/svg" xmlns:xlink="http://www.w3.org/1999/xlink" x="0px" y="0px"
	 viewBox="0 0 25 25" style="enable-background:new 0 0 25 25;" xml:space="preserve">
<style type="text/css">
	.st0{fill:#19C6EE;}
</style>
<g>
	<g>
		<path class="st0" d="M19.32,12.97c-1.33,0-2.4-1.08-2.4-2.4c0-1.33,1.08-2.4,2.4-2.4c1.33,0,2.4,1.08,2.4,2.4
			C21.73,11.89,20.65,12.97,19.32,12.97z M19.32,9.51c-0.58,0-1.05,0.47-1.05,1.05s0.47,1.05,1.05,1.05c0.58,0,1.05-0.47,1.05-1.05
			S19.9,9.51,19.32,9.51z"/>
	</g>
	<g>
		<path class="st0" d="M21.2,8.37c-1.82,0-3.3-1.48-3.3-3.3s1.48-3.3,3.3-3.3s3.3,1.48,3.3,3.3S23.02,8.37,21.2,8.37z M21.2,3.13
			c-1.07,0-1.95,0.87-1.95,1.95s0.87,1.95,1.95,1.95s1.95-0.87,1.95-1.95S22.27,3.13,21.2,3.13z"/>
	</g>
	<g>
		<path class="st0" d="M17.96,22.92v-1.29l2.99-3.08c0.66-0.7,1-1.29,1-1.75c0-0.69-0.48-1.14-1.14-1.14s-1.15,0.34-1.47,1.03
			l-1.45-0.85c0.55-1.2,1.65-1.85,2.89-1.85c0.79,0,1.48,0.25,2.04,0.75c0.56,0.49,0.85,1.16,0.85,2c0,0.91-0.48,1.84-1.44,2.81
			l-1.72,1.72h3.29v1.67H17.96z"/>
	</g>
	<g>
		<path class="st0" d="M10.1,20.88c-4.01,0-7.25-3.25-7.25-7.25c0-3.82,2.95-6.94,6.69-7.23c-0.2-0.01-0.4-0.02-0.61-0.02
			c-4.65,0-8.43,3.77-8.43,8.43s3.77,8.43,8.43,8.43s8.43-3.77,8.43-8.43c0-0.2-0.01-0.41-0.02-0.61
			C17.05,17.93,13.92,20.88,10.1,20.88z"/>
		<path class="st0" d="M9.17,8.68c3.25,0,5.89,2.64,5.89,5.89c0,3.1-2.39,5.63-5.43,5.87c0.16,0.01,0.33,0.02,0.49,0.02
			c3.78,0,6.84-3.06,6.84-6.84s-3.06-6.84-6.84-6.84s-6.84,3.06-6.84,6.84c0,0.17,0.01,0.33,0.02,0.49
			C3.53,11.07,6.07,8.68,9.17,8.68z"/>
	</g>
</g>
</svg>
