<svg width="32" height="32" viewBox="0 0 32 32" fill="none" xmlns="http://www.w3.org/2000/svg">
<g clip-path="url(#clip0_8458_20250)">
<path d="M6 6.625C6 6.45924 6.06585 6.30027 6.18306 6.18306C6.30027 6.06585 6.45924 6 6.625 6H10.375C10.5408 6 10.6997 6.06585 10.8169 6.18306C10.9342 6.30027 11 6.45924 11 6.625C11 6.79076 10.9342 6.94973 10.8169 7.06694C10.6997 7.18415 10.5408 7.25 10.375 7.25H7.25V10.375C7.25 10.5408 7.18415 10.6997 7.06694 10.8169C6.94973 10.9342 6.79076 11 6.625 11C6.45924 11 6.30027 10.9342 6.18306 10.8169C6.06585 10.6997 6 10.5408 6 10.375V6.625ZM21 6.625C21 6.45924 21.0658 6.30027 21.1831 6.18306C21.3003 6.06585 21.4592 6 21.625 6H25.375C25.5408 6 25.6997 6.06585 25.8169 6.18306C25.9342 6.30027 26 6.45924 26 6.625V10.375C26 10.5408 25.9342 10.6997 25.8169 10.8169C25.6997 10.9342 25.5408 11 25.375 11C25.2092 11 25.0503 10.9342 24.9331 10.8169C24.8158 10.6997 24.75 10.5408 24.75 10.375V7.25H21.625C21.4592 7.25 21.3003 7.18415 21.1831 7.06694C21.0658 6.94973 21 6.79076 21 6.625ZM6.625 21C6.79076 21 6.94973 21.0658 7.06694 21.1831C7.18415 21.3003 7.25 21.4592 7.25 21.625V24.75H10.375C10.5408 24.75 10.6997 24.8158 10.8169 24.9331C10.9342 25.0503 11 25.2092 11 25.375C11 25.5408 10.9342 25.6997 10.8169 25.8169C10.6997 25.9342 10.5408 26 10.375 26H6.625C6.45924 26 6.30027 25.9342 6.18306 25.8169C6.06585 25.6997 6 25.5408 6 25.375V21.625C6 21.4592 6.06585 21.3003 6.18306 21.1831C6.30027 21.0658 6.45924 21 6.625 21ZM25.375 21C25.5408 21 25.6997 21.0658 25.8169 21.1831C25.9342 21.3003 26 21.4592 26 21.625V25.375C26 25.5408 25.9342 25.6997 25.8169 25.8169C25.6997 25.9342 25.5408 26 25.375 26H21.625C21.4592 26 21.3003 25.9342 21.1831 25.8169C21.0658 25.6997 21 25.5408 21 25.375C21 25.2092 21.0658 25.0503 21.1831 24.9331C21.3003 24.8158 21.4592 24.75 21.625 24.75H24.75V21.625C24.75 21.4592 24.8158 21.3003 24.9331 21.1831C25.0503 21.0658 25.2092 21 25.375 21ZM11 11H12.25V12.25H11V11Z" fill="#EB6E34"/>
<path d="M14.75 8.5H8.5V14.75H14.75V8.5ZM9.75 9.75H13.5V13.5H9.75V9.75ZM12.25 19.75H11V21H12.25V19.75Z" fill="#EB6E34"/>
<path d="M14.75 17.25H8.5V23.5H14.75V17.25ZM9.75 18.5H13.5V22.25H9.75V18.5ZM19.75 11H21V12.25H19.75V11Z" fill="#EB6E34"/>
<path d="M17.25 8.5H23.5V14.75H17.25V8.5ZM18.5 9.75V13.5H22.25V9.75H18.5ZM16 16V18.5H17.25V19.75H16V21H18.5V18.5H19.75V21H21V19.75H23.5V18.5H19.75V16H16ZM18.5 18.5H17.25V17.25H18.5V18.5ZM23.5 21H22.25V22.25H19.75V23.5H23.5V21ZM18.5 23.5V22.25H16V23.5H18.5Z" fill="#EB6E34"/>
<path d="M21 17.25H23.5V16H21V17.25Z" fill="#EB6E34"/>
</g>
<defs>
<clipPath id="clip0_8458_20250">
<rect width="20" height="20" fill="white" transform="translate(6 6)"/>
</clipPath>
</defs>
</svg>
