<svg width="18" height="18" viewBox="0 0 18 18" fill="none" xmlns="http://www.w3.org/2000/svg">
<g id="vuesax/outline/empty-wallet">
<g id="vuesax/outline/empty-wallet_2">
<g id="empty-wallet">
<path id="Vector" d="M13.305 17.0625H4.695C2.8275 17.0625 1.3125 15.5475 1.3125 13.68V8.63252C1.3125 6.76502 2.8275 5.25002 4.695 5.25002H13.305C15.1725 5.25002 16.6875 6.76502 16.6875 8.63252V9.71252C16.6875 10.02 16.4325 10.275 16.125 10.275H14.61C14.3475 10.275 14.1075 10.3725 13.935 10.5525L13.9275 10.56C13.7175 10.7625 13.62 11.04 13.6425 11.325C13.6875 11.82 14.16 12.2175 14.7 12.2175H16.125C16.4325 12.2175 16.6875 12.4725 16.6875 12.78V13.6725C16.6875 15.5475 15.1725 17.0625 13.305 17.0625ZM4.695 6.37502C3.45 6.37502 2.4375 7.38752 2.4375 8.63252V13.68C2.4375 14.925 3.45 15.9375 4.695 15.9375H13.305C14.55 15.9375 15.5625 14.925 15.5625 13.68V13.35H14.7C13.5675 13.35 12.6075 12.51 12.5175 11.43C12.4575 10.815 12.6825 10.2075 13.1325 9.76503C13.5225 9.36753 14.0475 9.15002 14.61 9.15002H15.5625V8.63252C15.5625 7.38752 14.55 6.37502 13.305 6.37502H4.695Z" fill="#EB6E34"/>
<path id="Vector_2" d="M1.875 9.86999C1.5675 9.86999 1.3125 9.61499 1.3125 9.30749V5.88003C1.3125 4.76253 2.0175 3.74999 3.06 3.35249L9.015 1.10249C9.63 0.869989 10.3125 0.952525 10.845 1.32753C11.385 1.70253 11.7 2.31002 11.7 2.96252V5.81251C11.7 6.12001 11.445 6.37501 11.1375 6.37501C10.83 6.37501 10.575 6.12001 10.575 5.81251V2.96252C10.575 2.67752 10.44 2.41501 10.2 2.25001C9.96 2.08501 9.675 2.04751 9.405 2.15251L3.45 4.40251C2.8425 4.63501 2.43 5.22753 2.43 5.88003V9.30749C2.4375 9.62249 2.1825 9.86999 1.875 9.86999Z" fill="#EB6E34"/>
<path id="Vector_3" d="M14.7003 13.3499C13.5678 13.3499 12.6078 12.5099 12.5178 11.4299C12.4578 10.8074 12.6828 10.2 13.1328 9.75746C13.5153 9.36746 14.0403 9.14996 14.6028 9.14996H16.1628C16.9053 9.17246 17.4753 9.75743 17.4753 10.4774V12.0225C17.4753 12.7425 16.9053 13.3274 16.1853 13.3499H14.7003ZM16.1478 10.275H14.6103C14.3478 10.275 14.1078 10.3725 13.9353 10.5525C13.7178 10.7625 13.6128 11.0474 13.6428 11.3324C13.6878 11.8274 14.1603 12.2249 14.7003 12.2249H16.1703C16.2678 12.2249 16.3578 12.135 16.3578 12.0225V10.4774C16.3578 10.3649 16.2678 10.2825 16.1478 10.275Z" fill="#EB6E34"/>
<path id="Vector_4" d="M10.5 9.5625H5.25C4.9425 9.5625 4.6875 9.3075 4.6875 9C4.6875 8.6925 4.9425 8.4375 5.25 8.4375H10.5C10.8075 8.4375 11.0625 8.6925 11.0625 9C11.0625 9.3075 10.8075 9.5625 10.5 9.5625Z" fill="#EB6E34"/>
</g>
</g>
</g>
</svg>
